<svg xmlns="http://www.w3.org/2000/svg" width="72" height="72" viewBox="0 0 72 72">
  <rect width="72" height="72" rx="6" fill="#1b1b1d"/>
  <!-- trunk line -->
  <line x1="10" y1="38" x2="62" y2="38" stroke="#ee7b3d" stroke-width="2"/>
  <!-- V1 -->
  <line x1="20" y1="38" x2="20" y2="26" stroke="#ee7b3d" stroke-width="1.5"/>
  <rect x="13" y="18" width="14" height="10" rx="2" fill="none" stroke="#ee7b3d" stroke-width="1.5"/>
  <text x="20" y="26" font-family="monospace" font-size="6" fill="#ee7b3d" text-anchor="middle">V1</text>
  <!-- V2 -->
  <line x1="36" y1="38" x2="36" y2="26" stroke="#ee7b3d" stroke-width="1.5"/>
  <rect x="29" y="18" width="14" height="10" rx="2" fill="none" stroke="#ee7b3d" stroke-width="1.5"/>
  <text x="36" y="26" font-family="monospace" font-size="6" fill="#ee7b3d" text-anchor="middle">V2</text>
  <!-- V3 -->
  <line x1="52" y1="38" x2="52" y2="26" stroke="#ee7b3d" stroke-width="1.5"/>
  <rect x="45" y="18" width="14" height="10" rx="2" fill="none" stroke="#ee7b3d" stroke-width="1.5"/>
  <text x="52" y="26" font-family="monospace" font-size="6" fill="#ee7b3d" text-anchor="middle">V3</text>
  <!-- downlinks -->
  <line x1="20" y1="38" x2="14" y2="54" stroke="#ee7b3d" stroke-width="1" opacity="0.45"/>
  <line x1="20" y1="38" x2="26" y2="54" stroke="#ee7b3d" stroke-width="1" opacity="0.45"/>
  <line x1="36" y1="38" x2="30" y2="54" stroke="#ee7b3d" stroke-width="1" opacity="0.45"/>
  <line x1="36" y1="38" x2="42" y2="54" stroke="#ee7b3d" stroke-width="1" opacity="0.45"/>
  <line x1="52" y1="38" x2="46" y2="54" stroke="#ee7b3d" stroke-width="1" opacity="0.45"/>
  <line x1="52" y1="38" x2="58" y2="54" stroke="#ee7b3d" stroke-width="1" opacity="0.45"/>
</svg>
